# xmcd
#
# Track frame offsets:
#	150
#	19100
#	32305
#	49432
#	66310
#	82797
#	96547
#	112527
#	116230
#	127152
#	139797
#	154635
#	167767
#	185490
#	207408
#	226029
#	228849
#	246824
#	263201
#	274456
#
# Disc length: 3980 seconds
#
# Revision: 1
# Processed by: cddbd v1.5.2PL0 Copyright (c) Steve Scherf et al.
# Submitted via: audiograbber 1.83.01
#
DISCID=140f8a14
DTITLE=Eaglesmtih - Drive-in Movie, Lipstick, Lies and Gasoline
DYEAR=1990
DGENRE=Alternative Rock
TTITLE0=I like trains
TTITLE1=49 Tons
TTITLE2=Crashin and Burnin'
TTITLE3=Wilder than her
TTITLE4=Wild rose
TTITLE5=Soda machine
TTITLE6=Freight train
TTITLE7=49 Tons (reprise)
TTITLE8=Seven shells
TTITLE9=105
TTITLE10=Thinking
TTITLE11=Bell
TTITLE12=Drinkin' too much
TTITLE13=Pontiac
TTITLE14=Spookin' the horses
TTITLE15=Bell (reprise)
TTITLE16=Alcohol and Pills
TTITLE17=Angel of the Lord
TTITLE18=Seven shells (crash)
TTITLE19=Water in the fuel
EXTD=
EXTT0=
EXTT1=
EXTT2=
EXTT3=
EXTT4=
EXTT5=
EXTT6=
EXTT7=
EXTT8=
EXTT9=
EXTT10=
EXTT11=
EXTT12=
EXTT13=
EXTT14=
EXTT15=
EXTT16=
EXTT17=
EXTT18=
EXTT19=
PLAYORDER=
